<?xml version="1.0" encoding="utf-8"?>
<!-- Generator: Adobe Illustrator 17.1.0, SVG Export Plug-In . SVG Version: 6.00 Build 0)  -->
<!DOCTYPE svg PUBLIC "-//W3C//DTD SVG 1.1//EN" "http://www.w3.org/Graphics/SVG/1.1/DTD/svg11.dtd">
<svg version="1.1" id="Layer_1" xmlns="http://www.w3.org/2000/svg" xmlns:xlink="http://www.w3.org/1999/xlink" x="0px" y="0px"
	 viewBox="0 0 269.7 279.7" enable-background="new 0 0 269.7 279.7" xml:space="preserve">
<g>
	<rect x="-18.3" y="0" fill="#FFFFFF" width="288" height="288"/>
	<g>
		<polygon fill="#0F172A" points="51.7,237.8 55.1,260.2 66.7,235.8 146.5,225.3 147.8,153.1 36.9,164.5 47.2,238.4 		"/>
		<g>
			<path fill="#FFFFFF" d="M89.3,199.4c1.4-2,3.3-4.1,5.9-6.4c2.2-2,3.7-3.6,4.7-5c1-1.4,1.3-3.1,1-5c-0.3-1.8-1.2-3.3-2.7-4.4
				c-1.6-1.1-3.6-1.6-6.1-1.6c-2.6,0-5,0.6-7,1.7c-2,1.2-3.7,2.8-5,5l-9.6-6.9c2-3.6,4.9-6.5,8.9-8.5c3.9-2,8.5-3.1,13.8-3.1
				c5.8,0,10.7,1.4,14.5,4.1c3.8,2.7,6.1,6.3,6.7,10.9c0.4,2.8,0.2,5.2-0.5,7.2c-0.7,2-1.6,3.7-2.9,5.1c-1.2,1.4-2.8,2.9-4.8,4.6
				c-2.2,1.9-3.8,3.5-4.9,4.9c-1.1,1.4-1.7,3-1.8,4.9H87.1C87.2,204,88,201.4,89.3,199.4z"/>
			<circle fill="#FFFFFF" cx="93.2" cy="217.9" r="6.9"/>
		</g>
	</g>
	<g>
		<path fill="#FFB412" d="M131.5,189.7l-3,15.9l18-8.8c29.8,10.2,62.7,2.9,71.9-17.1c14.4-31.2-6.2-59.5-42.5-63.8
			c-30.7-3.7-73.8,16.6-61.5,53.9C117.1,178,123.4,184.6,131.5,189.7z"/>
		<g>
			<path fill="#FFFFFF" d="M162.5,162.5c1.4-2,3.3-4.1,5.9-6.4c2.2-2,3.7-3.6,4.7-5c1-1.4,1.3-3.1,1-5c-0.3-1.8-1.2-3.3-2.7-4.4
				c-1.6-1.1-3.6-1.6-6.1-1.6c-2.6,0-5,0.6-7,1.7c-2,1.2-3.7,2.8-5,5l-9.6-6.9c2-3.6,4.9-6.5,8.9-8.5c3.9-2,8.5-3.1,13.8-3.1
				c5.8,0,10.7,1.4,14.5,4.1c3.8,2.7,6.1,6.3,6.7,10.9c0.4,2.8,0.2,5.2-0.5,7.2c-0.7,2-1.6,3.7-2.9,5.1c-1.2,1.4-2.8,2.9-4.8,4.6
				c-2.2,1.9-3.8,3.5-4.9,4.9c-1.1,1.4-1.7,3-1.8,4.9h-12.4C160.4,167.1,161.1,164.5,162.5,162.5z"/>
			<circle fill="#FFFFFF" cx="166.4" cy="181.1" r="6.9"/>
		</g>
	</g>
	<g>
		<path fill="#6527AD" d="M151.2,122.2l80.6,5.5c12.1-82.8,8.1-64.2,11.8-93.3L127,52.6l-2.3,67.8l11.7,0.8l4.9,17.7L151.2,122.2z"
			/>
		<g>
			<path fill="#FFFFFF" d="M175.5,86.6c1.4-2,3.3-4.1,5.9-6.4c2.2-2,3.7-3.6,4.7-5c1-1.4,1.3-3.1,1-5c-0.3-1.8-1.2-3.3-2.7-4.4
				c-1.6-1.1-3.6-1.6-6.1-1.6c-2.6,0-5,0.6-7,1.7c-2,1.2-3.7,2.8-5,5l-9.6-6.9c2-3.6,4.9-6.5,8.9-8.5s8.5-3.1,13.8-3.1
				c5.8,0,10.7,1.4,14.5,4.1c3.8,2.7,6.1,6.3,6.7,10.9c0.4,2.8,0.2,5.2-0.5,7.2c-0.7,2-1.6,3.7-2.9,5.1c-1.2,1.4-2.8,2.9-4.8,4.6
				c-2.2,1.9-3.8,3.5-4.9,4.9c-1.1,1.4-1.7,3-1.8,4.9h-12.4C173.4,91.1,174.1,88.5,175.5,86.6z"/>
			<circle fill="#FFFFFF" cx="179.4" cy="105.1" r="6.9"/>
		</g>
	</g>
	<g>
		<path fill="#00D6CA" d="M76.3,146.4c1.2-0.1,2.4-0.2,3.6-0.3l13.2,15.2l3.2-18.9c37.9-14.3,47.9-62.3,28.8-80.1
			C103,41.5,58.8,48,39.8,79.2C26.3,101.4,22.2,148.9,76.3,146.4z"/>
		<g>
			<path fill="#FFFFFF" d="M78.8,105.1c1.4-2,3.3-4.1,5.9-6.4c2.2-2,3.7-3.6,4.7-5c1-1.4,1.3-3.1,1-5c-0.3-1.8-1.2-3.3-2.7-4.4
				c-1.6-1.1-3.6-1.6-6.1-1.6c-2.6,0-5,0.6-7,1.7c-2,1.2-3.7,2.8-5,5L60,82.5c2-3.6,4.9-6.5,8.9-8.5c3.9-2,8.5-3.1,13.8-3.1
				c5.8,0,10.7,1.4,14.5,4.1c3.8,2.7,6.1,6.3,6.7,10.9c0.4,2.8,0.2,5.2-0.5,7.2c-0.7,2-1.6,3.7-2.9,5.1c-1.2,1.4-2.8,2.9-4.8,4.6
				c-2.2,1.9-3.8,3.5-4.9,4.9c-1.1,1.4-1.7,3-1.8,4.9H76.6C76.7,109.6,77.4,107.1,78.8,105.1z"/>
			<circle fill="#FFFFFF" cx="82.7" cy="123.6" r="6.9"/>
		</g>
	</g>
</g>
</svg>
